<?xml version="1.0" encoding="UTF-8"?>
<svg id="Layer_1" data-name="Layer 1" xmlns="http://www.w3.org/2000/svg" viewBox="0 0 283.46 283.46">
  <defs>
    <style>
      .cls-1, .cls-2 {
        fill-rule: evenodd;
        stroke-linecap: round;
        stroke-linejoin: round;
      }

      .cls-1, .cls-2, .cls-3 {
        stroke: #fff;
        stroke-width: 4px;
      }

      .cls-1, .cls-3 {
        fill: none;
      }

      .cls-2 {
        fill: #fff;
      }

      .cls-3 {
        stroke-miterlimit: 10;
      }
    </style>
  </defs>
  <g id="Lines">
    <path class="cls-1" d="m208.42,108.95c-.1-2.16-.68-4.52-1.24-6.73-1.37-5.39-3.65-7.97-7.13-12.44-2.41-3.09-6.02-6.74-8.63-9.66-3.29-3.67-6.31-5.88-9.56-9.57-2.75-3.12-6.04-7.96-6.98-10.2-.83-1.99-1.68-4.26-3.04-7.92-2.36-6.34.11-13.01,3.34-18.57.98-1.68,2.82-3.28,4.52-4.22.61-.33,1.23-.64,1.83-.98.13-.07.89-.41.87-.3-8.41.21-16.32,2.92-23.9,5.54-3.88,1.33-5.79,2.93-9.66,4.13-1.61.5-5.12,2.44-6.64,3.2-2.44,1.22-7.13,3.78-9.62,5.21-5.41,3.09-8.29,4.42-13.52,7.76-4.21,2.69-5.69,3.48-8.86,6.23-2.82,2.44-7.38,6.59-10.1,9.31-3.94,3.94-6.79,7.19-10.2,11.74-2.2,2.94-5.27,7.16-6.78,9.74-2.9,4.96-3.01,9.75-3.86,15.52"/>
    <path class="cls-1" d="m203.77,185.97c0,2.88.5,2.88,1.28,5.92.42,1.65.43,2.24-.15,4.21-.67,2.29-3.91,6.01-.77,3.91,2-1.34,4.86-4.76,5.35-6.52.78-2.77.6-2.79.42-4.97-.15-1.88-1.33-3.62-1.68-4.84-.83-2.86-1.08-3.23-1.33-5.72-.65-6.62-1.07-13.43.79-20.51,2.06-7.88,9.3-12.11,11.25-20.57.48-2.07,1.06-4.11.74-6.19-.12-.77-.17-1.16-.44-1.9-.36-.98-.37.26-.98,1.1-.57.78-1.62,2.72-2.73,4-2.15,2.49-2.7,2.34-3.97,1.18-.17-.15-.26-.38-.3-.62-.04-.27-.03-.55,0-.77.19-1.02.1-.33.21-1.99.03-.53.04-5.55.08-5.5,0,0-2.92-5.51-5.78-7.77-2.84-2.26-6.42-3.81-7.68-3.6-.42.83-1.91,4.09-3.66,5.84-2.25,2.25-4.13,3.33-8.72,4.71-1.99.6-2.88.69-3.86.79-1.13.11-2.38.15-5.55-.15-6.15-.59-9.89-2.52-15.49-5.21-4.06-1.95-8.04-5.48-12.59-6.23-6.13-1.01-11.21,5.98-17.93,7.26-9.12,1.75-18.62,2.09-27.73-3.5-.78-.48-2.36-1.51-4.15-2.66-1.07-.69-2.23-1.43-3.34-2.13-2.7-1.7-5.11-3.14-5.44-3.03-2.47.82-5.06,2.99-6.97,4.69-2.53,2.26-5.88,6.33-7.4,9.36-.19.37-.84,2.62-.84,3.27,0,1.42-.62,3.44-2.39,3.15-.89-.15-1.61-1.32-1.99-2.03-1.04-1.92-2.06-4.85-1.23-7.06.97-2.58-.78.81-1.31,1.68-.41.68-.67,1.46-.98,2.18-.5,1.11-.73,2.61-.81,3.82-.38,5.78,4.32,9.65,6.61,14.5,2.86,6.06,3.79,12.99,3.37,19.66-.5,8.12-10.52,17.84-4.78,25.89.99,1.39,2.33,2.9,4.03,3.43.34.1,1,.33,1,.33,0,0-1.55-1.39-1.89-2.33-.73-2.02-1.25-4.99-.68-7.11.16-.59.81-2.9,1.11-4.14,0,0,1.66,4.58,1.81,5,.28.77.64,1.62,1.07,2.32,2.51,4.05,4.93,8.07,8.5,11.35,6.21,5.71,11.54,12.25,17.01,18.62,4.03,4.7,8.1,8.9,11.16,14.33,2.71,4.8,3.37,11.11,2.42,16.51-.22,1.22-1.37,5.32-2.27,7.11l1.65-4.79c-.13.2-.84,2.97-.92,3.19-.12.35-1.09,2.11-.74,1.59.43-.61,1.96-1.91,2.68-2.19,1.01-.39,3.44-1.3,4.49-1.58.95-.25,1.89-.51,2.81-.85,2.66-.99,15.38-4.54,18-5.62,7.15-2.96,12.31-5.59,15.38-7.33,9.03-5.12,13.91-7.9,18.5-11.39,4.04-3.05,7.86-6.65,14.1-12.83,1.8-1.79,3.71-3.94,5.42-6.26,2.3-3.11,4.27-6.53,5.24-9.81.61-2.05,1.53-4.25,1.83-6.41.1-.72,1.13-4.8,1.13-4.8h0Z"/>
    <path class="cls-1" d="m207.02,176.76s.02.09.02.13c0,.07,0-.15-.01-.22-.02-.15-.65-7.09-.67-7.86-.05-1.67.38-4.87.49-6.54.15-2.23.3-2.95.8-5.11.24-1.07,1.64-4.34,2.59-4.25,2.45-1.03,7.95-3.23,9.05-3.65,7.65-2.92,15.13-7.41,18.04,4.28.51,2.03.79,4.04.68,6.14-.54,9.64-11.4,12.77-18.86,15.28-2.29.77-5.74,1.93-8.14,2.09-.75.05-3.61.02-3.36-.05l-.61-.22h0Z"/>
    <path class="cls-2" d="m206.89,161.49c2.09-2.09,8.15-3.04,10.95-2.42,1.5.33,3.92,2.25,2.77,4.05-2.03,3.17-6.31,4.74-9.71,5.88-.32.11-4.07,2.01-4.07,1.62"/>
    <path class="cls-1" d="m71.42,173.64c1.03-.16,2.83-3.64,3.02-4.13.48-1.26,1.03-2.78,1.13-4.13.13-1.73.39-3.47.46-5.21.11-2.96-.44-6.37-1.02-9.28-.16-.81-1.08-2.53-1.42-3.69-4.57,0-13.48-11.34-22.88-6.67-2.38,1.18-3.93,2.9-4.58,5.55-2.56,10.3,2.24,20.38,11.77,25.14,1.6.8,9.92,2.99,13.53,2.42h0Z"/>
    <path class="cls-1" d="m98.37,181.67c2.54.51,7-2.5,7.23-2.68,1.56-1.31,2.51-1.95,3.69-2.83,2.69-2.01,3.25-2.73,5.84-4.8,2.25-1.8,6.87-6.02,8.47-7.75.97-1.05,2.96-3.17,3.97-4.27,1.01-1.1,1.71-1.99,2.94-3.24,2.86-2.9,4.2-5.96,9.89-6.76.39-.05,3.78-.15,4.15-.09,4.83.81,8.4,4.98,11.6,7.93,7.19,6.64,11.89,12.31,19.5,18.49,4.81,3.91,11.01,4.68,16.16-.06,1.52-1.4,1.66-3.63,2.27-5.15.75-1.88.65-3.09,1.2-5.12.28-1.02.36-1.71.54-2.64.12-.62.27-1.19.35-1.93.38-3.27.18-1.32.51-3.55.39-2.66.22-1.46.49-5.27.03-.36.1-2.35.11-2.86.02-.84-.09-1.4-.19-2.09-.13-.87-.24-2.12-.57-3.11-.37-1.11-.46-1.72-1.67-3.53-.96-1.43-5.02-2.33-5.71-3.96-.77-1.81.64-3.92,1.63-3.85.52.03,1.31-.31,2.11-.17,1.05.19,2.09.92,2.49,1.43.02.03.91.32.9.3-.48-1.65-.31-1.44-.54-1.88-.86-1.71-3.39-2.49-4.89-3.07-1.87-.73-2.84-.09-5.12.4-2.01.44-7.23,4.67-9.26,3.45-2.26-1.36.56-3.48,1.96-3.83.76-.19.94-.05,1.9-.14.04,0,.78.02.96.04.25.02-2.28-1.53-2.58-1.64-2.09-.76-4.76-.83-6.91-.42-2.23.42-8.22,5.87-9.89,3.92-.33-.38-.11-1.06-.04-1.48.59-3.35,7.31-2.49,5.74-3.41-.55-.32-1.19-.42-1.82-.42-.57,0-1.14-.04-1.7-.02-3.72.19-9.24,3.73-11.56,6.41-1.96,2.27-4.16,6.31-7.45,6.61-1.47.13-3.43.24-4.65-.36-5.56-2.72-12.13-14.62-18.61-14.09-.66.05,6.59,3.54,3.1,5.38-1.05.55-1.88.25-2.77-.45-3.53-2.76-4.15-3.29-8.41-4.79-1.77-.62-3.93-1.31-5.82-1.06-.7.09-1.85.67-2.36,1.17-.04.04-.15.16-.15.1,0-.19,1.75-.48,1.94-.49,1.72-.17,5.08,2.57,3.89,4.14-1.73,2.3-8.99-3.63-12.33-3.96-3.19-.32-8.34,4.15-6.19,6.3.35.35.69-.72,1.07-1.03.81-.66,2.21-1.79,3.33-1.14,1.12.65,1.37,2.65.65,3.62-1.53,2.08-5.58,4.58-7.17,6.63-3.35,4.36-3.62,8.01-4.46,10.94-1.99,6.86-.07,14.25,1.72,19.57.61,1.81,4.04,7.09,4.96,8.44,1.18,1.73,5.39,4.05,5.59,4.09v.03Z"/>
    <path class="cls-1" d="m111.89,195.24c.17.2.92,1.53,1.18,2.01.1.19.11.28.68,1.09.37.52.66,1.13,1.69,2.5,1.15,1.53.88,1.22,2.03,2.74.75,1,2.23,2.76,3.03,3.71,3.05,3.56,7.21,6.48,11.8,7.17,6.85,1.03,14.66,1.12,21.24-1.18,2.39-.83,5.15-1.92,7.3-3.32,1.71-1.11,3.83-3.18,5.19-4.73,1.68-1.92,2.73-3.87,3.78-5.72,1.91-3.36,2.24-4.81,2.64-6.56"/>
    <path class="cls-2" d="m216.04,115.02c-1.14-1.18-7.19-5.4-7.19-5.4v.02c-1.34-.33-2.25-.71-3.12-1.08-1.36-.58-6.39-3.18-7.06-4.43-2.77-5.22-2.01-11.5-6.3-16.22-3.41-3.77-12.91-5.95-17.67-6.14-10.21-.41-16.9-.95-26.33-1.16-8.82-.2-18.45-.89-27.09-.37-6.62.4-12.4,1.18-18.36,5.54-2.45,1.79-3.93,3.73-5.11,6.64-.5,1.24-1.66,5.88-2.04,6.24-2.8,2.64-6.35,4.85-9.37,5.87-1.99.67-4.08,1.13-5.63,1.59-.2.06-1.49.62-1.56.66-1.05.68-3.27,2.53-3.45,2.73-1.41,1.47-1.32,1.42-2.39,2.86-1.42,1.92-1.05,8.63-.66,11.04.09.52.08,3.16.38,3.47.54.54,1.97-1.92,2.16-2.29,1.51-3.03,4.87-7.09,7.4-9.36,1.91-1.71,4.5-3.87,6.97-4.69.69-.23.12,0,.12,0,.04.09,5.26,3.27,5.93,3.71,3.62,2.39,4.49,2.64,6.87,4.11,9.11,5.6,18.61,5.25,27.73,3.5,6.72-1.29,11.8-8.27,17.93-7.26,4.55.75,8.53,4.28,12.59,6.23,5.6,2.69,9.33,4.62,15.49,5.21,3.16.3,4.42.26,5.55.15.98-.1,1.88-.19,3.86-.79,4.59-1.39,6.47-2.47,8.72-4.71,1.75-1.75,3.24-5.01,3.66-5.84,1.55.74,4.84,1.34,7.68,3.6,2.86,2.26,7.61,11.54,8.4,11.03,1.62-1.06,2.62-6.21,2.84-8.19.08-.71.57-4.65-.97-6.24Zm-74.35-13.83c-.48,1.32-1.1,2.05-1.8,3.26-.56.97-2.74,3.43-3.5,4.03-4.55,3.63-5.59,4.67-11.05,5.08-1.04.08-6.73.14-7.78.13-2.49-.03-5.85-.57-8-1.97-2.34-1.53-3.47-4.75-4.17-7.31-.78-2.85-.76-6.16,1.09-8.65.59-.79,1.32-1.68,2.11-2.23,1.09-.74,2.35-1.2,3.95-1.5h0c2.11-.39,3.84-.35,5.13-.35,2.32,0,2.43-.04,3.91-.01.52,0,1.48-.05,3.6,0,3.75.07,4.61-.11,7.72,0,2.84.1,3.69-.04,6.41.98.7.26,1.26.67,1.63,1.15.26.33,1.28,2.51,1.22,3.15-.12,1.4,0,2.99-.47,4.24Zm47.05,5.98c-.85,2.49-2.16,5.62-4.59,6.99-2.23,1.26-5.62,1.6-8.1,1.49-1.05-.05-6.72-.44-7.76-.57-5.43-.71-6.41-1.81-10.74-5.66-.72-.64-2.76-3.2-3.26-4.19-.63-1.24-1.2-2-1.61-3.34-.39-1.27-.18-2.84-.22-4.22-.02-.64,1.13-2.74,1.4-3.05.2-.22,1.64-.96,3.61-1.22,2.01-.26,4.56-.04,5.99-.02,3.1.07,10.48.3,13.76.48,1.29.07,3.02.13,5.1.64h0c1.58.38,2.82.91,3.86,1.71.76.58,1.44,1.51,1.98,2.32,1.71,2.57,1.53,5.86.59,8.63Z"/>
    <path class="cls-1" d="m115.9,195.12c-3.29.15-4.59.33-5.68-.11-1.71-.69-3.07-.79-2.84-4.59.39-6.52,5.76-14.38,9.71-19.36,1.61-2.03,4.21-4.32,6.02-6.17,5.46-5.6,10.77-9.49,19.16-10.07,5.18-.36,9.9,1.35,13.78,4.54,9.11,7.49,12.67,11.91,16.19,18.57,1.59,3.02,2.95,5.67,3.71,9.05,1.52,6.79-8.77,6.04-13.22,6.2-8.24.28-16.49.29-24.72.67-3.01.14-4.32.2-7.32.42-2.87.22-1.91.17-7.79.52-1.47.09-3.23.16-7,.33h0Z"/>
    <path class="cls-2" d="m75.32,158.87s-1.83-2.14-2.81-2.65c-4.23-2.21-12.09-4.2-12.63.42-.64,5.49,4.06,7.85,8.51,9.19,1.25.37,6.83,1.19,6.29.98"/>
    <path class="cls-2" d="m99.24,147.78c-.75,4.82,4.7,9.68,12.16,10.84,7.46,1.16,14.13-1.81,14.88-6.63-3.38.96-8.53,1.36-13.93.52s-10.18-2.79-13.11-4.72h0Z"/>
    <path class="cls-2" d="m190.34,147.78c.75,4.82-4.7,9.68-12.16,10.84-7.46,1.16-14.13-1.81-14.88-6.63,3.38.96,8.53,1.36,13.93.52s10.18-2.79,13.11-4.72h0Z"/>
    <rect class="cls-3" x="117.62" y="129.65" width="2.39" height="28.13" transform="translate(-61.92 189.58) rotate(-64.66)"/>
    <rect class="cls-3" x="157.39" y="142.52" width="28.13" height="2.39" transform="translate(-45.01 87.21) rotate(-25.34)"/>
    <path class="cls-1" d="m140.66,160.66s-4.1,4.54-5.07,6.81c-.43,1.02.04,2.19,1.06,2.62s2.19-.04,2.62-1.06c.97-2.28,1.39-8.38,1.39-8.38h0Z"/>
    <path class="cls-1" d="m149.71,160.66s4.1,4.54,5.07,6.81c.43,1.02-.04,2.19-1.06,2.62s-2.19-.04-2.62-1.06c-.97-2.28-1.39-8.38-1.39-8.38h0Z"/>
    <path class="cls-2" d="m139.47,194.8s2.16-.17,4.17-.23c.9-.03,13.7-.56,17.84-.62,3.13-.05,10.07-.47,10.33-.22.23.23-2.24,4.33-2.38,4.61-.86,1.72-2.06,3.19-3,4.63-.34.52-1.85.81-2.51,1.01-1.66.52-6.65-.89-8.25-1.55-4.2-1.73-15.19-7.64-16.2-7.64h0Z"/>
    <path class="cls-2" d="m120.47,59.9s13.95-5.16,19.55-8.09c.93-.48,1.29-1.63.8-2.56s-1.63-1.29-2.56-.8c-5.6,2.93-17.79,11.45-17.79,11.45Z"/>
    <path class="cls-2" d="m147.55,43.4s-3.01.63-3.43,1.39c-.63,1.11-.23,2.53.89,3.16s2.53.23,3.16-.89c.42-.76-.61-3.65-.61-3.65h0Z"/>
  </g>
</svg>